<mxfile host="app.diagrams.net" modified="2024-07-18T13:32:30.287Z" agent="Mozilla/5.0 (Macintosh; Intel Mac OS X 10_15_7) AppleWebKit/537.36 (KHTML, like Gecko) Chrome/126.0.0.0 Safari/537.36" version="24.2.3" etag="48Q-L3r2xne8K-_gKtuc" type="github">
  <diagram name="Page-1" id="N_2GxUZ7wroU12jIQ1mP">
    <mxGraphModel>
      <root>
        <mxCell id="0" />
        <mxCell id="1" parent="0" />
      </root>
    </mxGraphModel>
  </diagram>
</mxfile>
